# xmcd
#
# Track frame offsets:
# 150
# 10899
# 25299
# 43226
# 61010
# 76584
# 91078
# 109455
# 126513
# 146712
# 168769
# 188060
# 207625
# 228873
# 247439
# 268179
# 284162
#
# Disc length: 3979 seconds
#
#
# Revision: 0
# Processed by: cddbd v1.5.2PL0 Copyright (c) Steve Scherf et al.
# Submitted via: FreeRIP 2.96 
#
DISCID=fc0f8911
DTITLE=Various Artist - God Bless The USA
DYEAR=2008
DGENRE=Country
TTITLE0=The Star Spangled Banner,  The Isaacs
TTITLE1=God Bless The USA,  Lee Greenwood
TTITLE2=America Will Always Stand,  Randy Travis
TTITLE3=Color Me America,  Dolly Parton
TTITLE4=God, Family And Country,  Craig Morton
TTITLE5=American Child,  Phil Vasser
TTITLE6=Have You Forgotten?,  Darryl Worley
TTITLE7=God's Still In America,  Ritchie McDonald
TTITLE8=Letters From Home,  John Michael Montgomery
TTITLE9=8th Of November,  Big and Rich
TTITLE10=Letters From War,  Mark Schultz
TTITLE11=Somebody's Someone,  Lonestar
TTITLE12=Bumper Of My S.U.V.,  Chely Wright
TTITLE13=Some Gave All,  Billy Ray Cyrus
TTITLE14=Riding With Private Malone,  David Ball
TTITLE15=They Also Served,  John Conlee
TTITLE16=Ragged Old Flag,  Johnny Cash
EXTD=
EXTT0=
EXTT1=
EXTT2=
EXTT3=
EXTT4=
EXTT5=
EXTT6=
EXTT7=
EXTT8=
EXTT9=
EXTT10=
EXTT11=
EXTT12=
EXTT13=
EXTT14=
EXTT15=
EXTT16=
PLAYORDER=
